<?xml version="1.0" encoding="UTF-8" standalone="no"?>
<svg width="333px" height="95px" viewBox="0 0 333 95" version="1.1" xmlns="http://www.w3.org/2000/svg" xmlns:xlink="http://www.w3.org/1999/xlink" xmlns:sketch="http://www.bohemiancoding.com/sketch/ns">
    <!-- Generator: Sketch 3.2.2 (9983) - http://www.bohemiancoding.com/sketch -->
    <title>? i oo + Path + Path</title>
    <desc>Created with Sketch.</desc>
    <defs></defs>
    <g id="Page-1-Copy" stroke="none" stroke-width="1" fill="none" fill-rule="evenodd" sketch:type="MSPage">
        <g id="Artboard-3" sketch:type="MSArtboardGroup" transform="translate(-190.000000, -78.000000)">
            <g id="?-i-oo-+-Path-+-Path" sketch:type="MSLayerGroup" transform="translate(190.000000, 78.000000)">
                <path d="M314.071429,19.2857143 L276.214286,19.2857143 L276.214286,0.357142857 L314.071429,0.357142857 L314.071429,19.2857143 Z M276.142857,38.2142857 L257.214286,38.2142857 L257.214286,19.2857143 L276.142857,19.2857143 L276.142857,38.2142857 Z M252.142857,76 L218.214286,76 L218.214286,57.0714286 L252.142857,57.0714286 L252.142857,76 Z M314.071429,76 L280.142857,76 L280.142857,57.0714286 L314.071429,57.0714286 L314.071429,76 Z M281.071429,95 L252.142857,95 L252.142857,76.0714286 L281.071429,76.0714286 L281.071429,95 Z M333,57.0714286 L314.071429,57.0714286 L314.071429,19.2857143 L333,19.2857143 L333,57.0714286 Z M256.785714,19.2857143 L218.928571,19.2857143 L218.928571,0.357142857 L256.785714,0.357142857 L256.785714,19.2857143 Z M218.928571,57.3571429 L200,57.3571429 L200,19.2857143 L218.928571,19.2857143 L218.928571,57.3571429 Z" id="?-i-oo" fill="#FF0000" sketch:type="MSShapeGroup"></path>
                <path d="M127.714286,95 L127.714286,38 L146.642857,38 L146.642857,95 L127.714286,95 Z M127.714286,20 L127.714286,0.357142857 L146.642857,0.357142857 L146.642857,20 L127.714286,20 Z" id="Path" fill="#FFFFFF" sketch:type="MSShapeGroup"></path>
                <path d="M57.7142857,19.2857143 L76.6428571,19.2857143 L76.6428571,38.2142857 L57.7142857,38.2142857 L57.7142857,19.2857143 Z M57.7142857,19.2857143 L0.928571429,19.2857143 L0.928571429,0.357142857 L57.7142857,0.357142857 L57.7142857,19.2857143 Z M19.8571429,38.2142857 L57.7142857,38.2142857 L57.7142857,57.1428571 L19.8571429,57.1428571 L19.8571429,38.2142857 Z M19.8571429,76.0714286 L38.7857143,76.0714286 L38.7857143,95 L19.8571429,95 L19.8571429,76.0714286 Z" id="Path" fill="#FFFFFF" sketch:type="MSShapeGroup"></path>
            </g>
        </g>
    </g>
</svg>